<?xml version="1.0" encoding="UTF-8"?>
<svg version="1.1" xmlns="http://www.w3.org/2000/svg" width="500" height="500">
<path d="M0 0 C1.61291308 -0.00215121 3.22582462 -0.0060368 4.83872986 -0.01150513 C9.179491 -0.02111654 13.51983449 -0.00600091 17.86054516 0.01440096 C22.42201879 0.03209755 26.98348194 0.02844451 31.54498291 0.02767944 C39.19753929 0.02954625 46.84993602 0.04682946 54.50244141 0.07421875 C63.33271309 0.10570785 72.16281048 0.116213 80.99313426 0.11474764 C90.42589233 0.11339409 99.85858384 0.12728528 109.29132175 0.14564085 C111.99720325 0.14989028 114.70307391 0.15132137 117.40895844 0.15211868 C121.66740796 0.15413626 125.92571279 0.16641637 130.18411446 0.18645096 C131.74129156 0.19226233 133.29848532 0.19475958 134.85567284 0.19359589 C149.46249893 0.18681401 161.63310499 1.85138688 172.83300781 12.11083984 C179.93371682 19.73644725 184.44965777 29.95549257 184.54785156 40.39208984 C183.92909684 52.95757036 178.11326632 61.7273214 170.02050781 70.98583984 C168.95145118 72.22147695 167.88244214 73.45715522 166.81347656 74.69287109 C166.26868652 75.32016113 165.72389648 75.94745117 165.16259766 76.59375 C162.54312216 79.6120276 159.93637886 82.64116841 157.33300781 85.67333984 C156.5787854 86.55131226 156.5787854 86.55131226 155.80932617 87.44702148 C152.85131376 90.90069823 149.94677455 94.39066409 147.08300781 97.92333984 C142.94286558 103.02525741 138.64505398 107.97738902 134.32641602 112.92773438 C131.07318807 116.66601331 127.88797756 120.44510363 124.77050781 124.29833984 C121.94562943 127.78819873 119.04333202 131.16594498 116.02050781 134.48583984 C112.16889334 138.71728481 108.53166138 143.08401565 104.93457031 147.53271484 C101.70191889 151.48722047 98.389437 155.37188514 95.06201172 159.24682617 C91.47474452 163.45051343 90.1070571 165.71119089 90.16894531 171.38427734 C90.8012899 175.16429278 92.77856082 176.86852681 95.52050781 179.48583984 C99.03441142 181.78550409 102.08325059 181.74234015 106.22583008 181.75708008 C106.8914949 181.76230682 107.55715973 181.76753357 108.24299622 181.7729187 C109.68561516 181.78314069 111.1282708 181.78893597 112.57092476 181.79080009 C114.86377572 181.79447667 117.15619905 181.81124224 119.44895935 181.83155823 C125.96694932 181.88681821 132.48500393 181.91749837 139.00317383 181.94213867 C142.99555819 181.9581373 146.98764358 181.98849151 150.97987175 182.02690315 C152.49188974 182.03845506 154.00396152 182.04448263 155.51602364 182.04458427 C169.86753307 182.04589776 183.8326154 183.96163796 194.77050781 194.11083984 C203.53971901 203.48482423 206.0505418 213.09423159 205.79394531 225.62646484 C204.71421113 240.86614154 193.86282522 250.44343823 183.52050781 260.54833984 C174.86754608 269.03308579 174.86754608 269.03308579 166.86035156 278.12036133 C166.19712891 278.79627319 166.19712891 278.79627319 165.52050781 279.48583984 C164.86050781 279.48583984 164.20050781 279.48583984 163.52050781 279.48583984 C163.27026855 280.06172348 163.0200293 280.63760712 162.76220703 281.23094177 C161.34817327 283.79879553 159.73677139 285.50295002 157.65332031 287.56420898 C156.85909668 288.35505386 156.06487305 289.14589874 155.24658203 289.96070862 C154.38822754 290.80560349 153.52987305 291.65049835 152.64550781 292.52099609 C151.76523926 293.39606308 150.8849707 294.27113007 149.97802734 295.17271423 C147.64123706 297.49470799 145.30046544 299.81258014 142.95727539 302.12811279 C139.65480798 305.39256115 136.35751548 308.6622154 133.06298828 311.93467712 C131.30954377 313.67585466 129.5534332 315.4143522 127.79443359 317.1499176 C127.00020996 317.93761032 126.20598633 318.72530304 125.38769531 319.53686523 C124.68757324 320.22873428 123.98745117 320.92060333 123.26611328 321.63343811 C121.34369615 323.57020896 121.34369615 323.57020896 119.52050781 326.48583984 C118.86050781 326.48583984 118.20050781 326.48583984 117.52050781 326.48583984 C117.52050781 327.14583984 117.52050781 327.80583984 117.52050781 328.48583984 C116.86050781 328.48583984 116.20050781 328.48583984 115.52050781 328.48583984 C115.2611293 329.07086273 115.00175079 329.65588562 114.73451233 330.25863647 C113.43124061 332.64960877 112.03034632 334.21065958 110.09643555 336.12109375 C109.39908798 336.81506256 108.70174042 337.50903137 107.98326111 338.22402954 C107.23113846 338.96269257 106.47901581 339.70135559 105.70410156 340.46240234 C104.54661156 341.61209 104.54661156 341.61209 103.36573792 342.78500366 C100.90119094 345.23174162 98.43006196 347.67168878 95.95800781 350.11083984 C93.48326443 352.55799277 91.00997987 355.00657562 88.53956604 357.45809937 C87.00204282 358.98333703 85.46185494 360.50589402 83.91880798 362.02554321 C83.22461258 362.7132077 82.53041718 363.40087219 81.81518555 364.109375 C81.20166733 364.7146402 80.58814911 365.3199054 79.95603943 365.94351196 C78.42364663 367.4445427 78.42364663 367.4445427 77.52050781 369.48583984 C76.86050781 369.48583984 76.20050781 369.48583984 75.52050781 369.48583984 C75.19050781 370.47583984 74.86050781 371.46583984 74.52050781 372.48583984 C73.86050781 372.48583984 73.20050781 372.48583984 72.52050781 372.48583984 C72.52050781 373.14583984 72.52050781 373.80583984 72.52050781 374.48583984 C71.86050781 374.48583984 71.20050781 374.48583984 70.52050781 374.48583984 C70.19050781 375.47583984 69.86050781 376.46583984 69.52050781 377.48583984 C68.86050781 377.48583984 68.20050781 377.48583984 67.52050781 377.48583984 C67.25668808 378.07530396 66.99286835 378.66476807 66.72105408 379.27209473 C65.47116675 381.57682221 64.172398 383.06935736 62.31176758 384.90576172 C61.6609169 385.55323364 61.01006622 386.20070557 60.3394928 386.86779785 C59.28634132 387.90075989 59.28634132 387.90075989 58.21191406 388.95458984 C57.4893895 389.67191284 56.76686493 390.38923584 56.02244568 391.1282959 C53.71399661 393.4189437 51.39897894 395.70279949 49.08300781 397.98583984 C46.77147176 400.26972307 44.46141876 402.55505673 42.15428162 404.84338379 C40.7191072 406.26634195 39.2812676 407.68661829 37.84046936 409.10388184 C37.18646652 409.75135376 36.53246368 410.39882568 35.85864258 411.06591797 C35.28509537 411.63121216 34.71154816 412.19650635 34.12062073 412.77893066 C32.43712752 414.49965653 32.43712752 414.49965653 30.93687439 416.69958496 C30.46947342 417.28904907 30.00207245 417.87851318 29.52050781 418.48583984 C28.86050781 418.48583984 28.20050781 418.48583984 27.52050781 418.48583984 C27.27117996 419.06048477 27.02185211 419.6351297 26.76496887 420.22718811 C25.3394515 422.81445049 23.70427362 424.54225192 21.60913086 426.62426758 C20.80456955 427.42867783 20.00000824 428.23308807 19.17106628 429.06187439 C18.30024918 429.92236893 17.42943207 430.78286346 16.53222656 431.66943359 C15.63687698 432.56195328 14.7415274 433.45447296 13.81904602 434.3740387 C11.43910177 436.74468533 9.05493166 439.11091307 6.6685791 441.47509766 C4.25432464 443.8689727 1.84563701 446.26843381 -0.56347656 448.66748047 C-4.85894575 452.94310506 -9.159456 457.21360436 -13.46208191 461.48202515 C-15.80687955 463.8110209 -18.14384931 466.14766982 -20.47949219 468.48583984 C-21.09953125 469.09427734 -21.71957031 469.70271484 -22.35839844 470.32958984 C-24.88695662 472.81708096 -27.25533418 475.17949057 -29.35449219 478.04833984 C-35.88503737 485.53925931 -44.57735837 489.05353706 -54.31933594 489.76708984 C-68.12091226 490.23990345 -79.2386171 487.11627974 -89.58886719 477.53271484 C-96.60917951 469.91237583 -99.64375509 462.33599437 -99.79199219 452.04833984 C-99.84806641 450.10121094 -99.84806641 450.10121094 -99.90527344 448.11474609 C-99.40450668 437.67018236 -94.52181224 427.8338031 -90.05404663 418.57492065 C-88.47950548 415.31051176 -86.93569263 412.03150655 -85.38574219 408.75537109 C-85.06264572 408.07467056 -84.73954926 407.39397003 -84.40666199 406.69264221 C-80.90687576 399.30870081 -77.53385183 391.86858365 -74.16699219 384.42333984 C-72.9269402 381.68468044 -71.68594439 378.94645019 -70.44433594 376.20849609 C-70.12975937 375.51475891 -69.8151828 374.82102173 -69.49107361 374.10626221 C-64.71159661 363.57787644 -59.86610561 353.0795671 -55.02514648 342.5793457 C-54.33805235 341.08724006 -53.6509592 339.59513396 -52.96386719 338.10302734 C-52.65514175 337.4346434 -52.34641632 336.76625946 -52.02833557 336.07762146 C-51.1717726 334.21674507 -50.32254724 332.35287243 -49.47949219 330.48583984 C-49.19328003 329.85204407 -48.90706787 329.21824829 -48.61218262 328.56524658 C-46.86565045 324.60997156 -45.83244416 321.8303052 -46.47949219 317.48583984 C-48.4471877 313.30448689 -49.82772402 311.78788399 -54.0458374 309.83311462 C-58.70162578 308.20798102 -63.02466239 308.07201353 -67.91796875 308.11694336 C-68.82645065 308.11317688 -69.73493256 308.1094104 -70.67094421 308.10552979 C-72.63133974 308.0991258 -74.59176635 308.09940042 -76.55216217 308.1057148 C-79.66476463 308.11487752 -82.77677135 308.10454086 -85.88934326 308.08909607 C-94.73465107 308.04914717 -103.57990989 308.04778712 -112.42529297 308.05004883 C-117.8487261 308.05010018 -123.27183792 308.03080708 -128.6951828 308.00071526 C-131.74396757 307.98997041 -134.79211769 308.00197361 -137.84088135 308.01454163 C-152.65528714 307.98723055 -164.34787447 306.35000432 -175.34667969 295.67333984 C-182.74193237 287.80199793 -186.56358787 279.22692241 -186.85449219 268.48583984 C-186.90347656 267.26896484 -186.95246094 266.05208984 -187.00292969 264.79833984 C-186.42310408 254.94486893 -180.05351184 245.50450191 -175.22949219 237.17333984 C-174.65521484 236.16988525 -174.0809375 235.16643066 -173.48925781 234.13256836 C-169.6821059 227.50256039 -165.79932437 220.92125013 -161.83496094 214.38427734 C-158.95171337 209.62673155 -156.12179059 204.83781148 -153.29199219 200.04833984 C-152.74575195 199.1239209 -152.19951172 198.19950195 -151.63671875 197.24707031 C-147.47589413 190.19537711 -143.34880747 183.12434128 -139.22949219 176.04833984 C-135.24909451 169.21096573 -131.24552977 162.39216287 -127.15332031 155.62109375 C-123.11867929 148.92395313 -119.17925327 142.17072277 -115.22949219 135.42333984 C-106.69985691 120.85384952 -98.1266406 106.31080403 -89.50683594 91.79443359 C-83.04860749 80.91604025 -76.60570413 70.0306553 -70.28417969 59.07202148 C-66.1252087 51.86235076 -61.91888491 44.68152932 -57.67919922 37.51904297 C-56.47950186 35.48585623 -55.28960748 33.44715915 -54.10058594 31.40771484 C-45.29679089 16.37991019 -37.53602927 6.41278543 -20.18148041 1.29676437 C-13.49357923 -0.16822762 -6.80623264 -0.05333697 0 0 Z " fill="#3C81FF" transform="translate(240.4794921875,10.51416015625)"/>
</svg>
